<svg width="33.000000" height="35.000000" viewBox="0 0 33 35" fill="none" xmlns="http://www.w3.org/2000/svg" xmlns:xlink="http://www.w3.org/1999/xlink">
	<desc>
			Created with Pixso.
	</desc>
	<defs>
		<clipPath id="clip1_880">
			<rect id="credit-card 1" width="33.000000" height="35.000000" transform="translate(-0.114258 0.000000)" fill="white" fill-opacity="0"/>
		</clipPath>
	</defs>
	<rect id="credit-card 1" width="33.000000" height="35.000000" transform="translate(-0.114258 0.000000)" fill="#FFFFFF" fill-opacity="0"/>
	<g clip-path="url(#clip1_880)">
		<path id="Vector" d="M32.83 19.83L30.32 4.76C29.98 2.71 28.13 1.34 26.2 1.7L4.72 5.72C2.79 6.08 1.49 8.04 1.83 10.09L2.02 11.19C0.76 11.78 -0.12 13.11 -0.12 14.65L-0.12 29.58C-0.12 31.65 1.48 33.35 3.44 33.35L24.76 33.35C26.72 33.35 28.32 31.65 28.32 29.58L28.32 24.5L29.94 24.2C30.88 24.02 31.69 23.47 32.24 22.64C32.78 21.82 32.99 20.82 32.83 19.83ZM30.65 21.46C30.4 21.84 30.03 22.09 29.61 22.17L28.32 22.41L28.32 21.24L28.32 16.57L28.32 14.65C28.32 12.57 26.72 10.88 24.76 10.88L3.94 10.88L3.74 9.73C3.67 9.28 3.76 8.83 4.01 8.45C4.26 8.08 4.63 7.82 5.06 7.75L26.54 3.73C26.63 3.71 26.73 3.7 26.82 3.7C27.59 3.7 28.27 4.29 28.41 5.12L30.92 20.18C30.99 20.64 30.9 21.09 30.65 21.46ZM24.76 31.29L3.44 31.29C2.54 31.29 1.82 30.52 1.82 29.58L1.82 22.27L26.38 22.27L26.38 29.58C26.38 30.52 25.65 31.29 24.76 31.29ZM3.44 12.94L24.76 12.94C25.65 12.94 26.38 13.71 26.38 14.65L26.38 15.55L1.82 15.55L1.82 14.65C1.82 13.71 2.54 12.94 3.44 12.94ZM26.38 17.6L26.38 20.21L1.82 20.21L1.82 17.6L26.38 17.6Z" fill="#041E42" fill-opacity="1.000000" fill-rule="nonzero"/>
		<path id="Vector" d="M9.21 27.16L4.81 27.16C4.28 27.16 3.84 27.62 3.84 28.19C3.84 28.76 4.28 29.22 4.81 29.22L9.21 29.22C9.75 29.22 10.18 28.76 10.18 28.19C10.18 27.62 9.75 27.16 9.21 27.16Z" fill="#041E42" fill-opacity="1.000000" fill-rule="nonzero"/>
	</g>
</svg>
