<svg width="33.000000" height="35.000000" viewBox="0 0 33 35" fill="none" xmlns="http://www.w3.org/2000/svg" xmlns:xlink="http://www.w3.org/1999/xlink">
	<desc>
			Created with Pixso.
	</desc>
	<defs>
		<clipPath id="clip1_872">
			<rect id="headphones 1" width="33.000000" height="35.000000" transform="translate(-0.028809 0.000000)" fill="white" fill-opacity="0"/>
		</clipPath>
	</defs>
	<rect id="headphones 1" width="33.000000" height="35.000000" transform="translate(-0.028809 0.000000)" fill="#FFFFFF" fill-opacity="0"/>
	<g clip-path="url(#clip1_872)">
		<path id="Vector" d="M16.47 0C8.47 0 1.96 6.89 1.96 15.38C1.96 16.32 1.96 23.59 1.96 23.72C1.96 25.41 3.27 26.79 4.86 26.79L6 26.79C6.4 27.99 7.47 28.84 8.73 28.84C10.33 28.84 11.63 27.46 11.63 25.77L11.63 17.43C11.63 15.73 10.33 14.35 8.73 14.35C7.47 14.35 6.4 15.21 6 16.4L4.86 16.4C4.53 16.4 4.2 16.46 3.9 16.58L3.9 15.38C3.9 8.03 9.54 2.05 16.47 2.05C23.4 2.05 29.03 8.03 29.03 15.38L29.03 16.58C28.73 16.46 28.41 16.4 28.07 16.4L26.93 16.4C26.54 15.21 25.46 14.35 24.2 14.35C22.6 14.35 21.3 15.73 21.3 17.43L21.3 25.77C21.3 27.46 22.6 28.84 24.2 28.84C24.49 28.84 24.78 28.8 25.04 28.71C24.68 29.97 23.57 30.89 22.27 30.89L19.2 30.89C18.8 29.7 17.73 28.84 16.47 28.84C14.87 28.84 13.57 30.22 13.57 31.92C13.57 33.62 14.87 35 16.47 35C17.73 35 18.8 34.14 19.2 32.94L22.27 32.94C24.93 32.94 27.1 30.64 27.1 27.82L27.1 26.79L28.07 26.79C29.67 26.79 30.97 25.41 30.97 23.72C30.97 23.59 30.97 16.32 30.97 15.38C30.97 6.89 24.46 0 16.47 0ZM7.77 17.43C7.77 16.86 8.2 16.4 8.73 16.4C9.27 16.4 9.7 16.86 9.7 17.43L9.7 25.77C9.7 26.33 9.27 26.79 8.73 26.79C8.2 26.79 7.77 26.33 7.77 25.77L7.77 17.43ZM4.86 18.45L5.83 18.45L5.83 24.74L4.86 24.74C4.33 24.74 3.9 24.28 3.9 23.72L3.9 19.48C3.9 18.91 4.33 18.45 4.86 18.45ZM16.47 32.94C15.93 32.94 15.5 32.48 15.5 31.92C15.5 31.35 15.93 30.89 16.47 30.89C17 30.89 17.43 31.35 17.43 31.92C17.43 32.48 17 32.94 16.47 32.94ZM25.17 25.77C25.17 26.33 24.73 26.79 24.2 26.79C23.67 26.79 23.23 26.33 23.23 25.77L23.23 17.43C23.23 16.86 23.67 16.4 24.2 16.4C24.73 16.4 25.17 16.86 25.17 17.43L25.17 25.77ZM29.03 23.72C29.03 24.28 28.6 24.74 28.07 24.74L27.1 24.74L27.1 18.45L28.07 18.45C28.6 18.45 29.03 18.91 29.03 19.48L29.03 23.72Z" fill="#041E42" fill-opacity="1.000000" fill-rule="nonzero"/>
	</g>
</svg>
