<svg width="12" height="10" viewBox="0 0 12 10" fill="none" xmlns="http://www.w3.org/2000/svg">
<g clip-path="url(#clip0_54_161)">
<path d="M11.1541 3.83573C11.0822 3.63325 10.886 3.48989 10.6549 3.47074L7.50205 3.20866L6.25603 0.537725C6.16403 0.341494 5.95471 0.214844 5.72172 0.214844C5.48873 0.214844 5.27933 0.341494 5.18791 0.537725L3.94189 3.20866L0.788555 3.47074C0.5574 3.49027 0.36166 3.63363 0.289331 3.83573C0.217418 4.03822 0.283831 4.26032 0.458655 4.4007L2.84195 6.3141L2.13924 9.14786C2.08782 9.35622 2.17615 9.57168 2.36498 9.69665C2.46647 9.76417 2.58571 9.79789 2.70537 9.79789C2.8082 9.79789 2.91111 9.77287 3.00303 9.72251L5.72172 8.23415L8.43992 9.72251C8.63932 9.83161 8.89006 9.82162 9.07847 9.69665C9.26729 9.57168 9.35562 9.35622 9.30421 9.14786L8.60149 6.3141L10.9848 4.4007C11.1595 4.26032 11.226 4.03868 11.1541 3.83573V3.83573Z" fill="#F5C34B"/>
</g>
<defs>
<clipPath id="clip0_54_161">
<rect width="10.9219" height="10" fill="white" transform="translate(0.260742)"/>
</clipPath>
</defs>
</svg>
