<svg width="33.000000" height="35.000000" viewBox="0 0 33 35" fill="none" xmlns="http://www.w3.org/2000/svg" xmlns:xlink="http://www.w3.org/1999/xlink">
	<desc>
			Created with Pixso.
	</desc>
	<defs>
		<clipPath id="clip1_863">
			<rect id="shield 1" width="33.000000" height="35.000000" transform="translate(-0.142578 0.000000)" fill="white" fill-opacity="0"/>
		</clipPath>
	</defs>
	<rect id="shield 1" width="33.000000" height="35.000000" transform="translate(-0.142578 0.000000)" fill="#FFFFFF" fill-opacity="0"/>
	<g clip-path="url(#clip1_863)">
		<path id="Vector" d="M30.37 9.49L30.37 9.46C30.35 9.13 30.35 8.77 30.34 8.38C30.31 6.45 28.87 4.85 27.05 4.74C23.25 4.52 20.32 3.21 17.81 0.61L17.79 0.59C16.97 -0.2 15.74 -0.2 14.92 0.59L14.9 0.61C12.39 3.21 9.45 4.52 5.66 4.74C3.84 4.85 2.39 6.45 2.37 8.38C2.36 8.77 2.35 9.13 2.34 9.46L2.33 9.53C2.26 13.63 2.17 18.74 3.78 23.37C4.67 25.92 6.01 28.14 7.77 29.96C9.77 32.03 12.4 33.68 15.57 34.85C15.67 34.89 15.78 34.92 15.89 34.95C16.04 34.98 16.2 35 16.35 35C16.51 35 16.66 34.98 16.82 34.95C16.93 34.92 17.03 34.89 17.14 34.85C20.31 33.68 22.93 32.03 24.93 29.96C26.69 28.13 28.03 25.92 28.92 23.37C30.54 18.72 30.44 13.6 30.37 9.49ZM27.1 22.66C25.4 27.54 21.93 30.9 16.5 32.91C16.48 32.92 16.46 32.93 16.44 32.93C16.38 32.94 16.32 32.94 16.27 32.93C16.25 32.93 16.23 32.92 16.21 32.91C10.77 30.9 7.29 27.55 5.6 22.66C4.11 18.39 4.2 13.7 4.27 9.57L4.27 9.54C4.29 9.19 4.3 8.82 4.3 8.41C4.31 7.55 4.96 6.84 5.77 6.79C7.91 6.67 9.8 6.23 11.53 5.45C13.26 4.67 14.8 3.58 16.23 2.1C16.31 2.03 16.4 2.03 16.47 2.1C17.9 3.58 19.44 4.67 21.17 5.45C22.91 6.23 24.79 6.67 26.94 6.79C27.75 6.84 28.39 7.55 28.4 8.41C28.41 8.82 28.42 9.19 28.43 9.54C28.51 13.68 28.59 18.38 27.1 22.66Z" fill="#041E42" fill-opacity="1.000000" fill-rule="nonzero"/>
		<path id="Vector" d="M16.35 8.77C11.82 8.77 8.13 12.69 8.13 17.5C8.13 22.31 11.82 26.22 16.35 26.22C20.89 26.22 24.58 22.31 24.58 17.5C24.58 12.69 20.89 8.77 16.35 8.77ZM16.35 24.16C12.88 24.16 10.06 21.17 10.06 17.5C10.06 13.82 12.88 10.83 16.35 10.83C19.82 10.83 22.64 13.82 22.64 17.5C22.64 21.17 19.82 24.16 16.35 24.16Z" fill="#041E42" fill-opacity="1.000000" fill-rule="nonzero"/>
		<path id="Vector" d="M18.72 14.79L14.9 18.84L13.86 17.74C13.48 17.34 12.87 17.34 12.49 17.74C12.11 18.14 12.11 18.79 12.49 19.19L14.21 21.02C14.4 21.22 14.65 21.32 14.9 21.32C15.14 21.32 15.39 21.22 15.58 21.02L20.08 16.24C20.46 15.84 20.46 15.19 20.08 14.79C19.71 14.39 19.09 14.39 18.72 14.79Z" fill="#041E42" fill-opacity="1.000000" fill-rule="nonzero"/>
	</g>
</svg>
