<svg width="17" height="20" viewBox="0 0 17 20" fill="none" xmlns="http://www.w3.org/2000/svg">
<path d="M8.60194 9.16634C9.48219 9.16634 10.3427 8.922 11.0746 8.46409C11.8065 8.00629 12.377 7.35555 12.7138 6.59419C13.0506 5.83283 13.1388 4.99505 12.967 4.1868C12.7953 3.37855 12.3714 2.63611 11.749 2.0534C11.1266 1.47068 10.3336 1.07384 9.47026 0.913073C8.60684 0.752298 7.712 0.834815 6.89878 1.15017C6.08552 1.46554 5.39043 1.9996 4.90138 2.6848C4.41234 3.37001 4.15132 4.17559 4.15132 4.99967C4.15273 6.10434 4.62209 7.16337 5.45644 7.94449C6.29079 8.72559 7.42199 9.165 8.60194 9.16634ZM8.60194 2.49967C9.13005 2.49967 9.64642 2.6463 10.0855 2.921C10.5247 3.19571 10.867 3.58615 11.069 4.04296C11.2712 4.49978 11.324 5.00245 11.221 5.4874C11.118 5.97235 10.8637 6.41781 10.4902 6.76744C10.1168 7.11707 9.6409 7.35517 9.12293 7.45164C8.60488 7.5481 8.06796 7.49859 7.57999 7.30937C7.09211 7.12015 6.67504 6.79972 6.38161 6.3886C6.08819 5.97748 5.93157 5.49413 5.93157 4.99967C5.93157 4.33663 6.21291 3.70075 6.7137 3.23191C7.21451 2.76306 7.89376 2.49967 8.60194 2.49967ZM0.59082 18.333V14.9997C0.592236 13.895 1.06159 12.836 1.89594 12.0548C2.73029 11.2738 3.8615 10.8343 5.04144 10.833H12.1624C13.3424 10.8343 14.4736 11.2738 15.308 12.0548C16.1423 12.836 16.6116 13.895 16.6131 14.9997V18.333C16.6131 18.554 16.5192 18.766 16.3523 18.9223C16.1854 19.0785 15.959 19.1663 15.7229 19.1663C15.4869 19.1663 15.2604 19.0785 15.0935 18.9223C14.9266 18.766 14.8328 18.554 14.8328 18.333V14.9997C14.8328 14.3367 14.5514 13.7008 14.0507 13.2319C13.5499 12.7631 12.8706 12.4997 12.1624 12.4997H5.04144C4.33322 12.4997 3.654 12.7631 3.1532 13.2319C2.65241 13.7008 2.37107 14.3367 2.37107 14.9997V18.333C2.37107 18.554 2.27729 18.766 2.11036 18.9223C1.94343 19.0785 1.71702 19.1663 1.48095 19.1663C1.24487 19.1663 1.01846 19.0785 0.851529 18.9223C0.684604 18.766 0.59082 18.554 0.59082 18.333Z" fill="white"/>
</svg>
